<svg xmlns="http://www.w3.org/2000/svg" viewBox="0 0 64 64">
  <rect width="64" height="64" rx="14" fill="#000000"/>
  <g transform="translate(32 32) scale(0.22248) translate(-145.09 -172.44)">
    <path d="M130.52,159.49s-.05.04-.09.04h-46.92s0,0,0,0l-18.88,18.88h.01s-.01,0-.01,0l4.78,24.58c.02.12.19.14.23.02l5.79-13.63c.03-.08.14-.1.2-.04l23.07,23.07h0s0,0,0,0l126.82-126.82s.04-.05.04-.09v-20.77c0-.11-.13-.17-.21-.09l-94.84,94.84ZM89.74,174.46h25.51c.11,0,.17.13.09.21l-16.55,16.55s-.13.05-.17,0l-12.76-12.76s-.05-.13,0-.17l3.79-3.79s.05-.04.09-.04ZM213.18,131.35l-96.86,96.86s-.13.05-.17,0l-10.38-10.38s-.05-.13,0-.17l107.24-107.24c.08-.08.21-.02.21.09v20.77s-.01.06-.04.09ZM200.92,210.41l-32.79,32.79s-.03.05-.04.08l-1.37,36.87c0,.11-.13.16-.21.08l-28.18-28.18s-.05-.13,0-.17l62.41-62.41c.08-.08.21-.02.21.09v20.77s-.01.06-.04.09ZM200.87,177.06l-68.68,68.68s-.13.05-.17,0l-10.38-10.38s-.05-.13,0-.17l79.07-79.07c.08-.08.21-.02.21.09v20.77s-.01.06-.04.09Z" fill="#FFBE13"/>
  </g>
</svg>
