<?xml version="1.0" encoding="UTF-8"?>
<svg id="Layer_1" data-name="Layer 1" xmlns="http://www.w3.org/2000/svg" viewBox="0 0 1004.11 344.89">
  <path d="M341.9,158.29c0,18.41-12.52,30.56-31.68,30.56h-26.17v26.55h-14.65v-87.66h40.83c19.16,0,31.68,12.15,31.68,30.56ZM327.38,158.29c0-10.39-7.14-17.16-17.91-17.16h-25.55v34.44h25.55c10.77,0,17.91-6.76,17.91-17.28Z"/>
  <path d="M412.65,153.53v61.87h-12.52l-.12-8.26c-4.76,6.01-13.02,9.64-22.54,9.64-18.16,0-30.68-13.28-30.68-32.31s12.52-32.31,30.68-32.31c9.64,0,17.78,3.63,22.54,9.64l.12-8.27h12.52ZM398.62,184.47c0-11.52-7.77-19.54-18.91-19.54s-18.91,8.01-18.91,19.54,7.77,19.54,18.91,19.54,18.91-8.01,18.91-19.54Z"/>
  <path d="M473.95,157.67l-6.26,11.4c-3.51-2.38-6.64-3.38-10.39-3.38-10.02,0-16.41,7.39-16.41,19.54v30.18h-14.03v-61.87h12.52l.12,9.52c4.88-7.52,11.02-10.77,18.78-10.77,6.01,0,11.9,2,15.65,5.38Z"/>
  <path d="M475.51,207.76l6.51-10.14c5.51,4.38,13.65,6.89,21.79,6.89s12.4-2.51,12.4-7.01-4.01-6.51-13.52-7.52c-16.15-1.5-25.3-8.26-25.3-19.03s10.77-18.91,26.8-18.91c9.39,0,17.66,2.38,24.55,7.14l-6.14,10.02c-5.51-3.51-11.4-5.26-17.78-5.26-8.89,0-13.65,2.51-13.65,7.01,0,4.01,3.63,6.14,12.65,7.14,18.29,2,26.3,7.89,26.3,19.54s-10.65,19.29-26.68,19.29c-10.39,0-19.66-3-27.93-9.14Z"/>
  <path d="M600.25,189.73h-49.47c1.13,9.02,8.64,14.78,19.54,14.78,7.01,0,14.03-2.51,17.78-6.39l8.51,8.26c-6.14,6.64-16.03,10.77-26.67,10.77-20.41,0-33.56-12.9-33.56-32.69s12.9-32.18,32.06-32.18c21.79,0,33.81,14.28,31.81,37.44ZM550.91,178.83h35.94c-1-8.77-7.77-14.4-18.03-14.4s-16.16,5.26-17.91,14.4Z"/>
  <path d="M687.75,127.74v87.66h-14.65v-37.7h-45.71v37.7h-14.65v-87.66h14.65v36.32h45.71v-36.32h14.65Z"/>
  <path d="M766.66,153.53v61.87h-12.52l-.13-8.26c-4.76,6.01-13.03,9.64-22.54,9.64-18.16,0-30.68-13.28-30.68-32.31s12.52-32.31,30.68-32.31c9.64,0,17.78,3.63,22.54,9.64l.13-8.27h12.52ZM752.63,184.47c0-11.52-7.76-19.54-18.91-19.54s-18.91,8.01-18.91,19.54,7.76,19.54,18.91,19.54,18.91-8.01,18.91-19.54Z"/>
  <path d="M874.76,153.53l-20.54,61.87h-14.9l-5.89-17.66-8.89-24.8-8.89,24.8-5.89,17.66h-15.03l-20.66-61.87h14.9l7.01,22.79,6.64,23.04,15.9-45.84h11.9l15.78,46.09,6.89-23.29,6.76-22.79h14.9Z"/>
  <path d="M921.2,215.4l-24.8-27.3v27.3h-14.03v-87.66h14.03v51.85l22.17-26.05h17.16l-25.92,29.68,29.68,32.19h-18.28Z"/>
  <path d="M130.52,159.49s-.05.04-.09.04h-46.92s0,0,0,0l-18.88,18.88h.01s-.01,0-.01,0l4.78,24.58c.02.12.19.14.23.02l5.79-13.63c.03-.08.14-.1.2-.04l23.07,23.07h0s0,0,0,0l126.82-126.82s.04-.05.04-.09v-20.77c0-.11-.13-.17-.21-.09l-94.84,94.84ZM89.74,174.46h25.51c.11,0,.17.13.09.21l-16.55,16.55s-.13.05-.17,0l-12.76-12.76s-.05-.13,0-.17l3.79-3.79s.05-.04.09-.04ZM213.18,131.35l-96.86,96.86s-.13.05-.17,0l-10.38-10.38s-.05-.13,0-.17l107.24-107.24c.08-.08.21-.02.21.09v20.77s-.01.06-.04.09ZM200.92,210.41l-32.79,32.79s-.03.05-.04.08l-1.37,36.87c0,.11-.13.16-.21.08l-28.18-28.18s-.05-.13,0-.17l62.41-62.41c.08-.08.21-.02.21.09v20.77s-.01.06-.04.09ZM200.87,177.06l-68.68,68.68s-.13.05-.17,0l-10.38-10.38s-.05-.13,0-.17l79.07-79.07c.08-.08.21-.02.21.09v20.77s-.01.06-.04.09Z"/>
</svg>
